<svg xmlns="http://www.w3.org/2000/svg" width="11" height="10" fill="none"><path fill="#231F20" d="M10.862 2.522a.358.358 0 00-.273-.129H8.658V3.42c0 .471-.404.855-.901.855s-.901-.384-.901-.855V2.393H5.054V3.42c0 .471-.404.855-.9.855-.498 0-.902-.384-.902-.855V2.393H1.321a.358.358 0 00-.273.129.397.397 0 00-.09.3l.648 5.963C1.618 9.457 2.142 10 2.784 10h6.342c.642 0 1.166-.543 1.179-1.215l.648-5.964a.398.398 0 00-.09-.3z"/><path fill="#231F20" d="M4.153 3.76c.2 0 .36-.153.36-.341v-1.88c0-.528.562-.855 1.082-.855h.9c.548 0 .902.335.902.854v1.88c0 .19.161.343.36.343.199 0 .36-.154.36-.342v-1.88C8.117.646 7.435 0 6.496 0h-.901C4.6 0 3.793.69 3.793 1.538v1.88c0 .19.162.343.36.343z"/></svg>