<svg xmlns="http://www.w3.org/2000/svg" width="32" height="32" fill="none"><path fill="#fff" fill-opacity=".3" d="M16 32c-2.1667 0-4.2396-.4219-6.21875-1.2656-1.97917-.8438-3.68229-1.9792-5.10937-3.4063-1.42709-1.4271-2.5625-3.1302-3.40626-5.1093C.421875 20.2396 0 18.1667 0 16c0-2.1667.421875-4.2396 1.26562-6.21875.84376-1.97917 1.97917-3.68229 3.40626-5.10937 1.42708-1.42709 3.1302-2.5625 5.10937-3.40626C11.7604.421875 13.8333 0 16 0c2.1667 0 4.2396.421875 6.2188 1.26562 1.9791.84376 3.6822 1.97917 5.1093 3.40626 1.4271 1.42708 2.5625 3.1302 3.4063 5.10937C31.5781 11.7604 32 13.8333 32 16c0 2.1667-.4219 4.2396-1.2656 6.2188-.8438 1.9791-1.9792 3.6822-3.4063 5.1093-1.4271 1.4271-3.1302 2.5625-5.1093 3.4063C20.2396 31.5781 18.1667 32 16 32zm9.4062-24c-.125.0625-.3124.17708-.5624.34375l-.6094.40625-.5782.3125L23 9.28125C22.2292 8.42708 21.2812 8 20.1562 8 17.7188 8 16.5 9.02083 16.5 11.0625v1.8437c-3.3542-.1666-5.9271-1.3958-7.71875-3.68745C8.26042 9.76042 8 10.3542 8 11c0 1.375.51042 2.4167 1.53125 3.125-.125 0-.30208.0104-.53125.0312-.22917.0209-.41146.0209-.54688 0C8.31771 14.1354 8.16667 14.0833 8 14c0 .9583.25521 1.7552.76562 2.3906.51042.6354 1.21355 1.0469 2.10938 1.2344-.2083.25-.5.375-.875.375-.33333 0-.625-.0938-.875-.2812 0 .8124.39062 1.4427 1.1719 1.8906.7812.4479 1.6614.6823 2.6406.7031-.375.5625-.9219.9844-1.6406 1.2656C10.5781 21.8594 9.8125 22 9 22c-.29167 0-.69271-.0729-1.20312-.2188-.51042-.1458-.77605-.2187-.79688-.2187.33333.6667 1.01562 1.2396 2.04688 1.7187C10.0781 23.7604 11.3854 24 12.9688 24c1.3958 0 2.6979-.2448 3.9062-.7344 1.2083-.4896 2.2396-1.1406 3.0938-1.9531.8541-.8125 1.5885-1.7396 2.2031-2.7813.6146-1.0416 1.0729-2.1197 1.375-3.2343C23.849 14.1823 24 13.0833 24 12c0-.0417.125-.1302.375-.2656s.5417-.3177.875-.5469c.3333-.2292.5833-.4687.75-.7187-1.125 0-1.875.0208-2.25.0624.7292-.4374 1.2812-1.2812 1.6562-2.5312z"/></svg>