<svg xmlns="http://www.w3.org/2000/svg" width="32" height="32" fill="none"><path fill="#fff" fill-opacity=".3" d="M20.7999 16.0001c0 1.2731-.5057 2.494-1.4059 3.3942-.9002.9001-2.1211 1.4058-3.3941 1.4058-1.273 0-2.4939-.5057-3.3941-1.4058-.9002-.9002-1.4059-2.1211-1.4059-3.3942 0-.2736.0288-.5408.0784-.8H9.59989v6.3952c0 .4448.36.8048.80481.8048h11.192c.2132-.0004.4175-.0854.568-.2362.1506-.1509.2352-.3554.2352-.5686v-6.3952h-1.6784c.0496.2592.0784.5264.0784.8zm-4.8 3.2c.4203-.0001.8365-.083 1.2248-.2439.3883-.161.7411-.3968 1.0383-.6941.2971-.2973.5328-.6502.6936-1.0386.1607-.3884.2434-.8046.2433-1.225-.0001-.4203-.083-.8365-.244-1.2248-.1609-.3883-.3968-.7411-.6941-1.0382-.2973-.2972-.6502-.5329-1.0386-.6936-.3883-.1608-.8046-.2435-1.2249-.2434-.8489.0002-1.663.3377-2.2631.9381-.6001.6004-.9371 1.4146-.9369 2.2635.0002.8489.3376 1.663.9381 2.2631.6004.6001 1.4146.9371 2.2635.9369zm3.84-6.56h1.9184c.1274 0 .2497-.0505.34-.1405.0902-.0899.1412-.212.1416-.3395v-1.9184c0-.1277-.0507-.25019-.1411-.34051-.0903-.09031-.2128-.14105-.3405-.14105h-1.9184c-.1277 0-.2502.05074-.3406.14105-.0903.09032-.141.21281-.141.34051v1.9184c.0016.264.2176.48.4816.48zM15.9999.640137c-4.0737 0-7.98061 1.618283-10.86117 4.498843C2.25817 8.01954.639893 11.9264.639893 16.0001c0 4.0738 1.618277 7.9806 4.498837 10.8612 2.88056 2.8806 6.78747 4.4988 10.86117 4.4988 2.0171 0 4.0145-.3973 5.878-1.1692 1.8636-.7719 3.5568-1.9033 4.9832-3.3296 1.4263-1.4263 2.5577-3.1196 3.3296-4.9831.7719-1.8636 1.1692-3.861 1.1692-5.8781 0-2.0171-.3973-4.0144-1.1692-5.878-.7719-1.86354-1.9033-3.55682-3.3296-4.98312-1.4264-1.42631-3.1196-2.55772-4.9832-3.32963-1.8635-.77192-3.8609-1.169213-5.878-1.169213zm8 21.582363c0 .9776-.8 1.7776-1.7776 1.7776H9.77749c-.9776 0-1.7776-.8-1.7776-1.7776V9.77774c0-.9776.8-1.7776 1.7776-1.7776H22.2223c.9776 0 1.7776.8 1.7776 1.7776V22.2225z"/></svg>